<?xml version="1.0" standalone="no"?>
<!DOCTYPE svg PUBLIC "-//W3C//DTD SVG 20010904//EN"
 "http://www.w3.org/TR/2001/REC-SVG-20010904/DTD/svg10.dtd">
<svg version="1.0" xmlns="http://www.w3.org/2000/svg"
 width="243.000000pt" height="195.000000pt" viewBox="0 0 243.000000 195.000000"
 preserveAspectRatio="xMidYMid meet">

<g transform="translate(0.000000,195.000000) scale(0.100000,-0.100000)"
fill="#000000" stroke="none">
<path d="M1145 1891 c-6 -6 -39 -14 -74 -20 -36 -6 -69 -15 -75 -21 -5 -5 -18
-10 -28 -10 -21 0 -146 -58 -166 -77 -7 -7 -20 -13 -28 -13 -8 0 -14 -4 -14
-10 0 -5 -5 -10 -11 -10 -17 0 -149 -123 -209 -195 -38 -45 -90 -130 -90 -146
0 -8 26 -34 58 -59 102 -80 221 -170 225 -170 2 0 12 19 22 43 18 41 111 172
137 192 99 78 153 107 258 136 38 10 93 19 122 19 104 0 252 -50 331 -112 l38
-30 57 53 c117 108 191 184 192 196 0 19 -128 111 -200 143 -8 4 -29 15 -47
24 -17 9 -38 16 -46 16 -8 0 -28 7 -43 15 -16 8 -45 15 -64 15 -19 0 -48 7
-64 15 -32 17 -265 22 -281 6z"/>
<path d="M1289 1116 c-2 -2 -3 -72 -1 -155 l3 -151 257 -2 257 -3 3 -42 c2
-24 -3 -52 -11 -65 -8 -13 -17 -35 -21 -50 -4 -16 -11 -28 -16 -28 -6 0 -10
-7 -10 -15 0 -8 -4 -15 -10 -15 -5 0 -10 -7 -10 -15 0 -8 -5 -15 -11 -15 -16
0 -69 -56 -69 -74 0 -14 65 -70 175 -151 22 -16 46 -35 53 -42 19 -19 27 -16
53 17 13 16 30 30 37 30 6 0 12 7 12 15 0 8 3 15 8 15 4 0 15 18 26 40 10 21
25 41 32 44 8 3 14 16 14 30 0 13 7 26 15 30 9 3 15 18 15 40 0 19 6 36 13 39
9 3 12 16 9 36 -3 22 0 33 12 37 12 5 16 21 16 70 0 51 4 69 20 86 35 38 26
219 -12 248 -4 3 -6 14 -5 25 2 20 -6 20 -424 23 -234 1 -427 0 -430 -2z"/>
</g>
</svg>
