<?xml version="1.0" standalone="no"?>
<!DOCTYPE svg PUBLIC "-//W3C//DTD SVG 20010904//EN"
 "http://www.w3.org/TR/2001/REC-SVG-20010904/DTD/svg10.dtd">
<svg version="1.0" xmlns="http://www.w3.org/2000/svg"
 width="100.000000pt" height="100.000000pt" viewBox="0 0 100.000000 100.000000"
 preserveAspectRatio="xMidYMid meet">

<g transform="translate(0.000000,100.000000) scale(0.100000,-0.100000)"
fill="#000000" stroke="none">
<path d="M670 817 c-79 -45 -132 -103 -171 -185 -30 -62 -37 -71 -62 -71 -35
-1 -45 -26 -21 -52 17 -19 16 -21 -61 -99 -56 -57 -89 -82 -112 -86 -26 -5
-38 -16 -63 -60 -35 -63 -37 -75 -11 -98 18 -16 22 -15 82 22 48 29 65 45 67
63 2 16 33 55 81 103 71 70 80 77 98 65 30 -18 53 -5 53 31 0 16 4 30 9 30 18
0 136 72 169 104 42 39 112 155 112 185 0 33 -52 81 -87 80 -15 0 -53 -14 -83
-32z m129 -11 c29 -31 25 -52 -27 -131 -47 -72 -69 -93 -146 -139 -70 -42 -91
-44 -117 -13 -26 31 -24 46 17 119 44 78 83 119 154 157 67 37 90 38 119 7z
m-323 -272 c24 -6 54 -53 54 -84 0 -31 -17 -21 -68 38 -46 53 -43 61 14 46z
m-89 -162 c-61 -61 -87 -95 -87 -112 l0 -24 -30 29 c-30 29 -31 45 -2 45 10 0
55 38 102 85 56 56 88 81 94 75 7 -7 -19 -39 -77 -98z m-133 -111 l28 -29 -41
-26 c-45 -29 -57 -31 -66 -15 -7 10 34 99 46 99 3 0 18 -13 33 -29z"/>
<path d="M700 783 c-53 -40 -109 -95 -132 -128 -12 -16 9 0 45 37 36 36 80 74
96 84 17 10 31 22 31 26 0 11 -1 11 -40 -19z"/>
<path d="M759 783 c-13 -16 -12 -17 4 -4 9 7 17 15 17 17 0 8 -8 3 -21 -13z"/>
<path d="M741 701 c-28 -38 -70 -86 -94 -105 -23 -20 -37 -36 -30 -36 14 0
142 137 166 179 29 50 13 36 -42 -38z"/>
<path d="M644 668 c-109 -113 -144 -158 -60 -78 62 60 153 160 144 160 -2 0
-39 -37 -84 -82z"/>
<path d="M520 590 c-6 -11 -8 -20 -6 -20 3 0 10 9 16 20 6 11 8 20 6 20 -3 0
-10 -9 -16 -20z"/>
<path d="M574 535 c-10 -8 -14 -15 -8 -15 6 0 17 7 24 15 16 19 9 19 -16 0z"/>
</g>
</svg>
