<?xml version="1.0" standalone="no"?>
<!DOCTYPE svg PUBLIC "-//W3C//DTD SVG 20010904//EN"
 "http://www.w3.org/TR/2001/REC-SVG-20010904/DTD/svg10.dtd">
<svg version="1.0" xmlns="http://www.w3.org/2000/svg"
 width="24.000000pt" height="24.000000pt" viewBox="0 0 24.000000 24.000000"
 preserveAspectRatio="xMidYMid meet">

<g transform="translate(0.000000,24.000000) scale(0.100000,-0.100000)"
fill="#757575" stroke="none">
<path d="M63 135 c-17 -18 -16 -33 1 -51 19 -18 36 -18 36 1 0 8 9 15 20 15
11 0 20 -7 20 -15 0 -19 17 -19 36 -1 18 18 18 34 0 52 -19 18 -36 18 -36 -1
0 -8 -9 -15 -20 -15 -11 0 -20 7 -20 15 0 19 -21 19 -37 0z"/>
</g>
</svg>
